<?xml version="1.0" encoding="UTF-8"?>
<svg xmlns="http://www.w3.org/2000/svg" viewBox="0 0 128 130">
  <defs>
    <style>
      .cls-1 {
        fill: #f4d3c9;
      }

      .cls-2 {
        fill: #eadfd0;
      }

      .cls-3 {
        fill: #99a0bf;
      }

      .cls-4 {
        fill: #221f20;
      }

      .cls-5 {
        fill: #9b9b53;
      }

      .cls-6 {
        fill: #5fcbd0;
      }
    </style>
  </defs>
  <g id="Layer_7" data-name="Layer 7">
    <rect class="cls-6" x="-15.06" y="-10.81" width="150.11" height="150.49"/>
  </g>
  <g id="Layer_3" data-name="Layer 3">
    <path class="cls-1" d="M34.44,135.2c.32-.08,2.65-14.71,2.49-21.7-.16-6.99-1.61-12.3-1.61-12.54s-5.3-12.54-5.38-17.2-.32-7.56-.32-7.56c.16,0-6.59,.88-9.56-1.37s-4.98-5.47-4.98-11.17-2.09-12.62-1.69-13.42,.72-3.38,3.13-3.54,6.19,1.85,6.19,1.85c0,0-.8-1.04-1.04-4.98s-2.41-19.53,.8-25.48C25.68,12.15,34.77,.9,41.92-2.4h35.61s2.25,0,5.55,1.21,15.75,8.92,18.89,14.79c3.13,5.87,5.63,17.92,4.98,23.79-.64,5.87-1.53,10.61-1.53,10.61,0,0,4.74-2.89,6.67-.32,1.93,2.57,.96,17.44-2.25,22.18-3.21,4.74-7.8,7.07-10.13,6.59,0,0-4.26,18.73-6.83,21.38,0,0-3.54,12.62-2.57,17.92s2.33,15.99,2.41,15.67-58.27,3.78-58.27,3.78Z"/>
  </g>
  <g id="Layer_4" data-name="Layer 4">
    <path class="cls-2" d="M87.32,89.96c0-1.42-.21-10.17-1.92-12.45-1.71-2.28-9.82-6.76-12.45-6.97-2.63-.21-4.13,1.49-6.47,2.63s-3.77-1.07-6.62-2.35c-2.85-1.28-5.12,.43-9.46,2.56-4.34,2.13-5.98,8.39-7.26,13.52-1.28,5.12,2.19,21.3,3.7,25.75,1.14,3.34,12.09,5.12,20.77,5.26s19.13-11.52,19.06-11.38,.64-15.15,.64-16.57Zm-8.67,1.69c-2.91,1.39-9.67,3.06-13.16,3.06s-17.99-1.14-17.58-9.02c0,0-.18-1.81,3.17-1.98,3.34-.17,13.37,.31,15.01,.27,2.97-.06,15.3-.74,15.82,.22,.52,.97-.34,6.05-3.25,7.45Z"/>
  </g>
  <g id="Layer_5" data-name="Layer 5">
    <path class="cls-3" d="M45.1,44.32c2.61-.28,4.94,.85,5.36,1.34s-.78,3.6-2.4,3.95-3.95,.28-5.43-.85-1.76-2.82-1.55-3.1,1.41-1.06,4.02-1.34Z"/>
    <path class="cls-3" d="M80.02,43.89c2.26-.08,4.73,.71,4.59,2.05s-1.48,2.96-3.74,2.96-4.23-1.06-4.8-2.4,1.98-2.54,3.95-2.61Z"/>
  </g>
  <g id="Layer_6" data-name="Layer 6">
    <path class="cls-5" d="M34.54,140.17s2.38-16.66,2.6-23.36-2.27-16.44-1.84-16.55-.11-.97-3.57-.87-7.57,1.73-8.65,3.03-10.38,17.52-10.71,17.3-24.23,9.08-24.23,8.76,8.11,15.9,8.11,15.25,38.39-3.57,38.29-3.57Z"/>
    <path class="cls-5" d="M94.02,136.17c0-.32-4.11-21.52-3.68-27.79s1.41-6.92,1.41-6.92c0,0,8.33,.22,11.14,1.95s12.44,16.33,12.44,16.33l23.47,7.03s-3.14,11.57-3.03,11.25-41.75-1.84-41.75-1.84Z"/>
  </g>
  <g id="Layer_2" data-name="Layer 2">
    <g>
      <path class="cls-4" d="M39.52,48.74c.38-.57,.83-1.05,1.32-1.47-.02,.28,0,.56,.07,.81,.34,1.1,1.5,1.99,2.5,2.45,.9,.42,1.94,.61,2.93,.53,1.06-.08,2.11-.4,2.96-1.06,.61-.47,1.24-1.13,1.62-1.85,.17,.29,.32,.6,.44,.9,.27,.7,1.09,1,1.8,.89,.57-.09,1.4-.62,1.13-1.32-1.18-3.01-3.9-5.26-7.19-5.47-3.76-.23-7.92,1.06-10.09,4.3-.97,1.45,1.73,2.46,2.52,1.28Zm7.25-3.34c.15,0,.31,.02,.46,.03,.04,0,.18,.03,.23,.03,.12,.03,.24,.07,.37,.1,.04,.01,.33,.12,.13,.05-.2-.08,.12,.05,.16,.06,.12,.05,.24,.1,.35,.16,.21,.1,.42,.21,.62,.32,.04,.03,.08,.07,.12,.09-.04,.07-.07,.14-.1,.22,0,0,0,0,0,0-.03,.05-.11,.15-.1,.14-.07,.09-.14,.19-.22,.28-.12,.14-.26,.28-.39,.42-.02,.02-.05,.05-.07,.08,.01-.01,.01-.02,.03-.04,.16-.19-.04,.02-.09,.06-.17,.13-.35,.23-.54,.33-.02,.01-.02,.01-.03,.02,0,0,0,0-.02,0-.08,.03-.16,.07-.24,.09-.2,.07-.4,.13-.61,.17-.09,.02-.17,.03-.26,.05-.03,0-.06,0-.1,.01,0,0,0,0-.02,0-.39,.02-.78,0-1.16-.05-.09-.01-.17-.03-.26-.05-.03,0-.05,0-.06,0-.02,0-.03-.01-.05-.02-.18-.06-.37-.12-.55-.2-.18-.08-.35-.16-.52-.26-.03-.02-.16-.1-.17-.11-.05-.03-.09-.07-.14-.11-.15-.12-.29-.25-.43-.39-.02-.02-.07-.09-.1-.13-.05-.09-.11-.23-.06-.06-.07-.22-.2-.41-.36-.55,1.28-.58,2.72-.83,4.18-.77Z"/>
      <path class="cls-4" d="M74.84,46.57c.25,.79,.73,1.49,1.39,2.08,1,.89,2.3,1.33,3.63,1.4,1.59,.09,3.1-.29,4.34-1.33,.52-.44,.95-.97,1.32-1.53,.1,.13,.21,.25,.3,.38,.27,.39,.38,.59,.55,1.07,.03,.09,.11,.45,.12,.45,.01,.19,0,.47,.04,.08-.16,1.95,2.33,1.35,2.45-.21,.22-2.73-2.07-5.22-4.47-6.15-1.91-.74-4.23-.73-6.22-.35-1.66,.31-3.52,.87-4.71,2.15-.46,.49-.81,1.37-.35,1.98,.41,.53,1.15,.37,1.61-.01Zm4.12,.56c-.07-.04-.05-.03,0,0h0Zm2.98,.38c-.05,.02-.06,.02,0,0h0Zm1.32-2.01c.11,.04,.22,.11,.33,.16,0,.02-.03,.03-.04,.05-.08,.14-.15,.28-.24,.42,0,.01-.02,.04-.04,.06,.01-.02,.02-.02,.04-.05-.05,.08-.1,.16-.16,.24-.11,.16-.23,.32-.36,.48-.06,.07-.12,.13-.17,.19-.01,.01-.01,.01-.04,.03-.08,.07-.17,.14-.25,.21-.02,.02-.02,.02-.03,.03-.08,.04-.16,.09-.24,.14-.04,.02-.08,.04-.11,.05-.1,.03-.19,.06-.29,.09-.02,0-.03,.01-.05,.02-.02,0-.04,0-.08,0-.28,.02-.53,.04-.73,.03-.57-.04-1.09-.15-1.6-.38-.08-.03-.15-.07-.22-.11,0,0,0,0,0,0-.14-.1-.29-.2-.42-.32-.16-.14-.32-.29-.46-.45,0,0-.12-.15-.13-.17-.05-.08-.11-.16-.16-.24-.06-.1-.12-.2-.17-.31-.01-.02-.07-.17-.09-.2-.01-.04-.02-.09-.03-.13,.21-.05,.41-.1,.63-.14,1.65-.27,3.51-.29,5.1,.31Z"/>
      <path class="cls-4" d="M83.28,46.19c-.09,.14-.05,.07,0,0h0Z"/>
      <path class="cls-4" d="M77.25,82.21c-3.69-.03-7.37,.17-11.06,.25-3.16,.06-6.33-.18-9.5-.23-1.89-.03-3.79-.05-5.68,.06-1.05,.06-2.41,.08-3.26,.78-1.15,.94-1.2,2.81-.94,4.15,1.45,7.69,11.64,8.87,17.88,8.9,6.41-.03,15.49-1.02,18.26-7.95,.53-1.33,.89-3.1,.34-4.49-.77-1.92-4.43-1.46-6.03-1.48Zm3.8,3.22s0,0,0-.03c0,0,0,0,0,0,0,0,0,.02,0,.03Zm-32.31-.07s-.05,.03-.06,.02c0,0,.02,0,.06-.02Zm32.29,1.33c-.1,.55-.47,1.4-.73,1.78-.64,.94-1.41,1.61-2.4,2.23-3.58,2.23-8.26,2.58-12.37,2.6-5.14-.02-13.55-.53-15.97-6.09-.29-.67-.37-.98-.44-1.79,0,.07,0,0,.01-.13,.26-.04,.57-.09,.72-.1,1.5-.16,3.02-.15,4.52-.14,3.21,.02,6.41,.19,9.61,.25,2.79,.05,5.58-.14,8.36-.2,2.91-.07,5.81-.12,8.68,.32,0,.02,0,.04,0,.06,.06,.49,.07,.74-.02,1.22Z"/>
      <path class="cls-4" d="M23.17,59.86c1.14-1.48-1.49-2.32-2.38-1.17-.6,.77-1.22,1.57-1.6,2.47-.44,1.04-.5,2.08-.45,3.2,.09,1.71,.5,3.54,1.89,4.67,.58,.47,1.49,.43,2.09,.01,.52-.36,.82-1.14,.24-1.61-.44-.36-.76-.87-.92-1.39-.21-.67-.3-1.38-.35-2.08-.05-.76-.02-1.57,.28-2.24,.32-.73,.73-1.26,1.2-1.87Z"/>
      <path class="cls-4" d="M105.41,68.49c.82-1.01,1.66-2,2.44-3.03,.78-1.02,1.12-2.09,1.05-3.38-.13-2.44-1.12-4.61-3.23-5.92-.62-.38-1.6-.2-2.1,.31-.51,.53-.36,1.21,.23,1.57,1.55,.96,2.04,2.75,2.13,4.48,.04,.82-.23,1.45-.73,2.08-.69,.89-1.42,1.75-2.13,2.63-1.18,1.45,1.41,2.4,2.33,1.26Z"/>
      <path class="cls-4" d="M134.02,124.72c-.24-.26-.48-.52-.72-.78-.51-.55-1.36-.72-2.05-.4,0,0-.01,0-.02,.01-5.14-1.74-10.32-3.36-15.55-4.84-1.86-3.11-3.71-6.22-5.59-9.31-1.44-2.37-3.02-4.55-5.26-6.16-.26-.41-.57-.78-.95-1.09-1.39-1.15-3.29-1.36-5.02-1.55-1.92-.21-3.84-.3-5.77-.3,.25-.92,.53-1.83,.83-2.73,.02-.07,.03-.12,.04-.18,.35-.61,.68-1.22,1-1.84,1.46-2.78,2.33-5.73,3.07-8.77,.77-3.17,1.52-6.35,2.18-9.55,3.87,.89,7.45-1.53,9.41-4.77,2.25-3.72,3.76-8.31,4.64-12.54,.82-3.92,1.04-8.84-1.28-12.34-1.02-1.54-2.67-2.46-4.51-2.43-.25,0-.5,.03-.74,.07-.03-.06-.05-.11-.09-.16,.02-.36,.04-.7,.07-.96,.14-1.13,.26-2.26,.36-3.39,.2-2.26,.31-4.54,.29-6.81-.04-4.16-.48-8.33-1.62-12.35-2.11-7.48-6.44-13.76-12.85-18.17-3.71-2.56-7.82-4.47-11.88-6.38-1.56-.73-2.87,1.2-1.1,2.03,6.52,3.06,13.33,6.33,17.79,12.21,4.42,5.82,6.3,13.15,6.65,20.35,.12,2.41,.05,4.83-.12,7.23-.09,1.22-.2,2.43-.34,3.64-.02,.16-.04,.33-.06,.49-.17-.13-.34-.25-.52-.38-.49-.36-.98-.72-1.47-1.08,.46-.76,.48-1.77-.34-1.96-2.56-.56-5.06-1.23-7.67-1.54-2.62-.31-5.25-.41-7.89-.42-2.65-.01-5.32,0-7.98,.12-2.4,.12-4.59,.64-6.92,1.17-2.25,.51-4.61,.75-6.9,.98-2.17,.21-4.19-.11-6.26-.65-.27-.1-.57-.17-.87-.22-4.86-1.28-9.87-1.79-14.89-1.78-5.93,.02-11.84,.71-17.71,1.49-1.1,.15-1.5,1.95-.77,2.6-.57,.78-.96,1.73-1.26,2.71-1.26-6.24-2.25-12.64-1.42-18.97,.9-6.92,4.52-12.55,9.26-17.51,2.68-2.81,5.65-5.37,8.93-7.46,1.2-.77,.44-3.66-.88-2.82-6.09,3.88-11.57,9.23-15.4,15.36-4.13,6.6-4.92,14.43-4.21,22.05,.37,3.98,1.13,7.9,1.94,11.81-2.54-1.03-5.26-1.42-7.69,.39-1.37,1.02-2.2,2.57-2.14,4.29,.07,1.96,1.23,3.61,1.81,5.43,1.2,3.76,.39,7.83,1.04,11.68,.56,3.3,2.19,6.06,4.98,7.92,2.71,1.81,6.03,2.36,9.17,1.64,.21,4.06,.08,8.14,.94,12.17,.61,2.84,1.51,5.62,2.69,8.28-3.14-.05-6.5,.43-9.12,2.1-1.22,.78-2.27,1.9-2.71,3.3-.06,.18-.09,.35-.13,.53-1.3,2.52-3.03,4.88-4.54,7.25l-2.64,4.17c-.56,.88-1.24,1.77-1.67,2.75-4.9,1.65-9.71,3.57-14.4,5.75-.52,.1-.96,.37-1.36,.79-.85,.88-.37,2.64,1.03,1.98,.16-.08,.32-.15,.49-.22,.05-.02,.09-.04,.13-.06,4.49-2.09,9.09-3.94,13.78-5.55,.18,.78,.55,1.52,.9,2.27,.65,1.39,1.33,2.76,2.04,4.11,1.5,2.84,3.15,5.61,4.91,8.29,.5,.76,1.59,.34,2.01-.26l.49-.7c.81-1.15-.01-2.24-.93-2.02-1.3-2.03-2.55-4.09-3.7-6.2-.66-1.21-1.29-2.44-1.89-3.67-.53-1.08-1.78-2.78-1.23-3.98,.59-1.31,1.58-2.54,2.35-3.76,.79-1.25,1.59-2.5,2.38-3.76,.75-1.18,1.55-2.35,2.31-3.54,.14,.36,.3,.72,.47,1.06,1.9,3.83,4.1,7.54,6.15,11.3,1.97,3.61,4.69,7.42,5.31,11.55,.12,.83,.96,.99,1.71,.75,.1,.08,.21,.14,.35,.17,.7,.15,1.32-.6,1.42-1.22,.91-5.79,1.23-11.68,1.47-17.53,.05-1.17,.03-2.34-.01-3.51-.04-1.16-.09-2.36-.18-3.55,2.12,2.65,4.59,5.01,7.41,6.96,7.94,5.49,18.37,7.03,27.56,4.1,4.91-1.57,9.11-4.54,12.57-8.33,1.54-1.69,3.02-3.49,4.4-5.37-.15,1.24-.21,2.5-.17,3.79,.08,2.37-.05,4.73,.12,7.1,.38,5.06,1.08,10.1,1.65,15.14,.04,.36,.22,.6,.47,.75-.69,.86-1.38,1.71-2.04,2.56-.4,.51-.37,1.41,.26,1.72,.71,.34,1.45-.26,1.85-.77,5.17-6.61,11.37-13.28,13.43-21.64,.33-1.34,.68-3.09,.73-4.83,.66,.92,1.25,1.89,1.82,2.83,1.72,2.85,3.43,5.71,5.14,8.56,1.59,2.64,3.6,5.53,1.73,8.55-1.66,2.68-3.95,5.08-6.2,7.26-.83,.8,.5,1.75,1.25,1.72,.33-.01,.67-.02,1-.04,1.12-.04,1.58-.88,1.36-1.53,2.1-2.1,4.2-4.42,5.61-6.99,1.28-2.33,.74-4.62-.29-6.78,4.93,1.44,9.83,3,14.69,4.68,.58,.2,1.3,.23,1.82-.18,.4-.31,.62-.94,.23-1.36ZM-3.21,126.74s.02-.02,.02-.02c.02,0,.03,0,.05,0-.02,.01-.05,.02-.07,.03ZM76.1,40.78c2.53-.33,5.11-.28,7.65-.31,2.88-.03,5.76-.02,8.63,.22,2.17,.18,4.26,.58,6.36,1.03-.17,4-1.07,8.19-3.06,11.68-1.08,1.89-2.66,2.57-4.77,2.74-2.12,.17-4.26,.2-6.38,.14-2.15-.06-4.3-.23-6.43-.51-1.97-.26-4.01-.52-5.45-2.01-1.26-1.3-1.99-3.1-2.6-4.77-.74-2-1.32-4.07-1.71-6.17-.03-.16-.07-.34-.14-.51,.38-.05,.75-.11,1.12-.16,2.3-.31,4.49-1.07,6.79-1.38Zm-19.68,.83c.83,.21,1.66,.44,2.48,.64-.02,.14-.04,.31-.05,.46-.18,1.89-.26,3.79-.48,5.68-.23,1.94-.75,3.98-2.13,5.44-1.32,1.4-3.19,2.09-5.05,2.43-4.15,.75-8.88,.48-13.01-.27-2.2-.4-4.39-1.03-6.39-2.02-.79-.39-1.89-.82-2.27-1.67-.47-1.04-.51-2.42-.69-3.54-.21-1.31-.39-2.63-.54-3.95-.08-.7-.45-2.15,.21-2.69,.5-.41,1.49-.57,2.09-.74,1.23-.36,2.47-.61,3.74-.75,.19-.02,.34-.08,.47-.17,7.25-.62,14.57-.62,21.63,1.18Zm-21.95,61.02c1.13,3.62,1.18,7.77,1.03,11.54-.18,4.34-.4,8.7-.89,13.03-.82-1.98-1.93-3.86-2.96-5.75l-5.52-10.12c-1.24-2.27-4.59-6.58-1.9-8.9,2.35-2.03,6.48-1.96,9.37-1.74,0,0,0,0,0,0,.26,.49,.53,.97,.81,1.45,0,.16,.01,.32,.06,.48Zm-2.17-11.48c-.66-2.48-1.04-5.03-1.18-7.59-.17-3.15-.03-6.32-.4-9.46-.73-6.14-3.56-11.82-3.92-18.02-.11-1.88-2.34-1.59-2.23,.26,.34,5.83,2.86,11.17,3.76,16.88,.11,.69,.19,1.37,.26,2.06-2.81,.58-5.87-.31-8.05-2.14-2.96-2.49-3.5-6.07-3.6-9.74-.05-1.98,0-3.98-.3-5.94-.3-1.98-1.11-3.64-1.82-5.49-.7-1.82-.47-3.43,1.68-3.78,2.01-.33,4.03,.87,5.73,1.78,1.11,.59,2.62-1.17,2.01-2.12,.41-.24,.75-.62,.87-1.07,.24-.92,.47-1.85,.75-2.77,.06,.6,.15,1.17,.21,1.68,.18,1.48,.4,2.95,.66,4.41,.27,1.48,.46,3.07,1.4,4.3,1.52,1.99,4.59,3.01,6.9,3.69,2.73,.81,5.59,1.18,8.44,1.33,2.67,.13,5.4,.18,8.05-.24,2.36-.37,4.71-1.2,6.38-2.98,1.71-1.83,2.42-4.25,2.75-6.68,.17-1.28,.21-2.57,.32-3.85,.65-.89,2.21-.93,2.91-.93,.66,0,1.95-.06,2.77,.9,.64,2.66,1.52,5.29,2.83,7.66,.77,1.39,1.76,2.73,3.07,3.65,1.43,1,3.12,1.37,4.83,1.62,4.02,.6,8.1,.79,12.16,.6,1.73-.08,3.58-.12,5.17-.89,1.52-.73,2.46-2.06,3.2-3.53,1.73-3.41,2.74-7.2,3.04-11.02,.2,.15,.4,.29,.6,.44,.91,.67,1.83,1.34,2.74,2.01,.02,.16,.07,.32,.16,.48-.52,.37-1.01,.77-1.47,1.18-1.4,1.24,.97,2.63,2.07,1.66,.94-.83,2.49-2.39,3.89-2.1,1.35,.28,1.98,2.16,2.32,3.3,.96,3.32,.6,6.89-.25,10.19-.83,3.19-1.99,6.42-3.45,9.38-1.24,2.53-3.69,5.61-6.89,4.68,0,0,0,0,0,0,1.19-6.33,1.86-12.75,1.22-19.19-.19-1.86-2.42-1.6-2.23,.26,.58,5.84,0,11.7-1.05,17.46-.53,2.92-1.2,5.82-1.88,8.71-.64,2.7-1.21,5.44-2.12,8.07-1.57,4.52-4.46,8.77-7.41,12.6,.07-3.05,.18-6.1,.29-9.16,.14-3.99,.53-8.14,.08-12.12-.75-6.61-6.54-9.95-12.47-11.6,1.14-1.16,1.69-2.91,1.4-4.51-.19-1.04-.65-2-1.44-2.71-1.06-.95-2.58-1.46-3.98-1.02-.57,.18-1.32,.72-1,1.42,.3,.65,1.21,.92,1.87,.72,.05-.02,.1-.03,.15-.04,0,0,.01,0,.02,0,0,0,0,0,0,0,.02,0,.04,.02,.08,.03,.03,.01,.06,.03,.1,.04,.02,0,.03,0,.04,.01,0,0,.01,0,.02,.02,.09,.06,.18,.12,.26,.18,.05,.04,.12,.1,.13,.12,.05,.05,.1,.1,.15,.16,.06,.07,.11,.14,.16,.21,.02,.03,.04,.06,.05,.08,.07,.14,.15,.27,.21,.42,.07,.16,.11,.33,.17,.49,0,.01,0,.02,0,.02,0,0,0,0,0,.02,.01,.1,.03,.2,.04,.3,.02,.17,.03,.35,.02,.52,0,.09,0,.18-.01,.26,0,.02,0,.09-.01,.14,0,.05-.02,.14-.03,.16-.02,.09-.04,.17-.06,.26-.05,.17-.1,.33-.17,.5-.03,.08-.08,.16-.11,.24,0,0,0,0,0,0,0,.01,0,.01-.02,.03-.09,.15-.18,.29-.29,.43-.05,.07-.11,.13-.16,.19-.01,0,0,0-.02,.02-.07,.06-.14,.11-.21,.17-.22-.06-.45-.08-.65-.07-1.9,.09-2.91,1.44-4.26,2.54-1,.81-2.52,1-3.76,.76-1.52-.29-2.51-1.76-3.92-2.33-1.59-.64-3.39-.42-4.89,.34-.01-.02-.03-.03-.04-.05-.07-.1-.13-.21-.2-.31-.03-.06-.05-.12-.08-.19-.05-.12-.08-.24-.12-.36,0-.01-.01-.03-.02-.04-.02-.04-.02-.11-.02-.15-.04-.3-.05-.59-.03-.89,0-.14,.02-.29,.04-.43,0-.03,0-.06,.01-.08,.01-.06,.02-.13,.04-.19,.06-.28,.17-.53,.27-.79,0-.02,.02-.04,.02-.05,.04-.06,.08-.13,.13-.19,.01-.02,.13-.18,.22-.27,0,0,.02-.01,.05-.03,.06-.04,.12-.08,.18-.12,.03-.02,.03-.02,.04-.03,.07-.02,.18-.05,.2-.05,.66-.18,.9-.97,.5-1.51-.46-.62-1.28-.87-2.01-.67-.81,.22-1.52,.79-1.93,1.51-.44,.77-.62,1.58-.68,2.46-.09,1.35,.36,2.59,1.2,3.59-1.39,.62-2.78,1.23-4.08,2.03-2,1.23-3.59,3.18-4.68,5.23-1.87,3.55-2.36,7.54-2.52,11.5-.14,3.67,.23,7.27,.92,10.87,.57,2.99,1.2,5.96,1.83,8.94-5.88-4.68-9.99-11.43-11.92-18.69Zm39.65-27.31s.03,0,.08,0c-.03,0-.05,0-.08,0Zm.3,.05s-.06-.02-.09-.02c.04,0,.08,.02,.09,.02Zm-17.72,3.69s0-.02,0,0h0Zm.3-.95c-.04,.11-.03,.06,0,0h0Zm.38-.53s.06-.06,.07-.05c0,0-.04,.03-.07,.05Zm19.58,47.72c-8.34,3.85-18.57,3.21-26.55-1.27-.24-.14-.48-.29-.72-.43,0-.04,0-.09-.01-.13-1.33-6.5-3.22-13.11-3.43-19.78-.18-5.46,.21-13.04,5.12-16.52,1.87-1.33,4.15-2.04,6.2-3.05,.04-.02,.09-.06,.14-.09,.23-.02,.45-.08,.65-.21,.57-.38,1.24-.75,1.96-.71,.75,.04,1.31,.66,1.88,1.08,1.34,.98,2.67,1.61,4.36,1.69,1.55,.07,3.2-.13,4.58-.9,.66-.37,1.21-.9,1.76-1.42,3.2,.56,6.56,1.55,9.39,3.13,1.44,.8,2.76,1.83,3.73,3.17,1.21,1.67,1.51,3.66,1.55,5.67,.16,7.24-.47,14.49-.57,21.73-2.82,3.3-6.05,6.19-10.04,8.02Zm28.32-4.6c-.08,1.83-.45,3.64-1.04,5.38-1.69,4.99-4.87,9.36-8.2,13.54-.52-4.43-1.1-8.85-1.44-13.3-.18-2.3-.06-4.58-.13-6.88-.04-1.43-.12-2.85,.07-4.27,.03-.25,.08-.49,.13-.74,1.55,0,3.1,.06,4.65,.21,1.54,.15,3.54,.17,4.77,1.25,1.28,1.12,1.27,3.25,1.2,4.81Z"/>
    </g>
  </g>
</svg>